<?xml version="1.0" encoding="us-ascii" standalone="no"?><svg xmlns="http://www.w3.org/2000/svg" xmlns:xlink="http://www.w3.org/1999/xlink" contentStyleType="text/css" height="713px" preserveAspectRatio="none" style="width:1022px;height:713px;background:#0B58A8;" version="1.1" viewBox="0 0 1022 713" width="1022px" zoomAndPan="magnify"><defs/><g><rect fill="#0B58A8" height="713" style="stroke:none;stroke-width:1.0;" width="1022" x="0" y="0"/><text fill="#FFFFFF" font-family="Verdana" font-size="22" font-weight="bold" lengthAdjust="spacing" textLength="235" x="389.1868" y="35.4209">LIBRARY USE CASE</text><!--entity user--><g id="elem_user"><ellipse cx="312.5" cy="73.6094" fill="#0B58A8" rx="16" ry="16" style="stroke:#FFFFFF;stroke-width:1.5;"/><path d="M312.5,93.6094 C316.5,93.6094 319.5,93.6094 323.5,89.6094 C331.5,89.6094 339.5,97.6094 339.5,105.6094 L339.5,109.6094 C339.5,113.6094 335.5,117.6094 331.5,117.6094 L293.5,117.6094 C289.5,117.6094 285.5,113.6094 285.5,109.6094 L285.5,105.6094 C285.5,97.6094 293.5,89.6094 301.5,89.6094 C305.5,93.6094 308.5,93.6094 312.5,93.6094 " fill="#0B58A8" style="stroke:#FFFFFF;stroke-width:1.5;"/><text fill="#FFFFFF" font-family="Verdana" font-size="14" lengthAdjust="spacing" textLength="37" x="294" y="132.1045">USER</text></g><g id="elem_login"><ellipse cx="464.6374" cy="524.7485" fill="#0B58A8" rx="45.1374" ry="14.6391" style="stroke:#FFFFFF;stroke-width:1.0;"/><text fill="#FFFFFF" font-family="Verdana" font-size="14" lengthAdjust="spacing" textLength="39" x="442.1374" y="528.4961">Login</text></g><g id="elem_signUp"><ellipse cx="688.3615" cy="692.804" fill="#0B58A8" rx="50.3615" ry="14.6946" style="stroke:#FFFFFF;stroke-width:1.0;"/><text fill="#FFFFFF" font-family="Verdana" font-size="14" lengthAdjust="spacing" textLength="54" x="658.3615" y="696.5515">Sign Up</text></g><g id="elem_search"><ellipse cx="57.6299" cy="213.2656" fill="#0B58A8" rx="46.6299" ry="14.6562" style="stroke:#FFFFFF;stroke-width:1.0;"/><text fill="#FFFFFF" font-family="Verdana" font-size="14" lengthAdjust="spacing" textLength="49" x="30.1299" y="217.0132">Search</text></g><g id="elem_borrowBook"><ellipse cx="105.6952" cy="338.4484" fill="#0B58A8" rx="69.6952" ry="16.339" style="stroke:#FFFFFF;stroke-width:1.0;"/><text fill="#FFFFFF" font-family="Verdana" font-size="14" lengthAdjust="spacing" textLength="92" x="56.6952" y="342.196">Borrow Book</text></g><g id="elem_renewBook"><ellipse cx="505.6011" cy="213.2296" fill="#0B58A8" rx="68.6011" ry="16.1202" style="stroke:#FFFFFF;stroke-width:1.0;"/><text fill="#FFFFFF" font-family="Verdana" font-size="14" lengthAdjust="spacing" textLength="89" x="458.1011" y="216.9772">Renew Book</text></g><g id="elem_myBooks"><ellipse cx="610.313" cy="338.3865" fill="#0B58A8" rx="60.813" ry="14.7771" style="stroke:#FFFFFF;stroke-width:1.0;"/><text fill="#FFFFFF" font-family="Verdana" font-size="14" lengthAdjust="spacing" textLength="68" x="573.313" y="342.1341">My Books</text></g><g id="elem_returnBook"><ellipse cx="320.464" cy="276.3022" fill="#0B58A8" rx="68.964" ry="16.1928" style="stroke:#FFFFFF;stroke-width:1.0;"/><text fill="#FFFFFF" font-family="Verdana" font-size="14" lengthAdjust="spacing" textLength="90" x="272.464" y="280.0497">Return Book</text></g><g id="elem_pay"><ellipse cx="423.663" cy="276.133" fill="#0B58A8" rx="29.163" ry="14.5236" style="stroke:#FFFFFF;stroke-width:1.0;"/><text fill="#FFFFFF" font-family="Verdana" font-size="14" lengthAdjust="spacing" textLength="25" x="411.163" y="278.9797">Pay</text></g><!--entity librarian--><g id="elem_librarian"><ellipse cx="819.5" cy="73.6094" fill="#0B58A8" rx="16" ry="16" style="stroke:#FFFFFF;stroke-width:1.5;"/><path d="M819.5,93.6094 C823.5,93.6094 826.5,93.6094 830.5,89.6094 C838.5,89.6094 846.5,97.6094 846.5,105.6094 L846.5,109.6094 C846.5,113.6094 842.5,117.6094 838.5,117.6094 L800.5,117.6094 C796.5,117.6094 792.5,113.6094 792.5,109.6094 L792.5,105.6094 C792.5,97.6094 800.5,89.6094 808.5,89.6094 C812.5,93.6094 815.5,93.6094 819.5,93.6094 " fill="#0B58A8" style="stroke:#FFFFFF;stroke-width:1.5;"/><text fill="#FFFFFF" font-family="Verdana" font-size="14" lengthAdjust="spacing" textLength="76" x="781.5" y="132.1045">LIBRARIAN</text></g><g id="elem_addBook"><ellipse cx="702.5597" cy="212.8913" fill="#0B58A8" rx="61.5597" ry="14.782" style="stroke:#FFFFFF;stroke-width:1.0;"/><text fill="#FFFFFF" font-family="Verdana" font-size="14" lengthAdjust="spacing" textLength="69" x="665.0597" y="216.6389">Add Book</text></g><g id="elem_removeBook"><ellipse cx="943.6868" cy="213.0467" fill="#0B58A8" rx="72.6868" ry="16.9374" style="stroke:#FFFFFF;stroke-width:1.0;"/><text fill="#FFFFFF" font-family="Verdana" font-size="14" lengthAdjust="spacing" textLength="100" x="890.6868" y="216.7943">Remove Book</text></g><!--link user to signUp--><g id="link_user_signUp"><path d="M341.098,96.9784 C447.927,99.1164 817.5,113.6274 817.5,212.1094 C817.5,212.1094 817.5,212.1094 817.5,609.6094 C817.5,652.3348 766.478,673.7526 728.609,683.7648 " fill="none" id="user-signUp" style="stroke:#FFFFFF;stroke-width:1.0;"/></g><!--link user to login--><g id="link_user_login"><path d="M283.592,118.4124 C259.294,139.4434 228.5,173.6784 228.5,212.1094 C228.5,212.1094 228.5,212.1094 228.5,441.6094 C228.5,482.5444 356.794,507.6934 424.198,518.0814 " fill="none" id="user-login" style="stroke:#FFFFFF;stroke-width:1.0;"/></g><!--link user to search--><g id="link_user_search"><path d="M283.837,105.4424 C247.496,117.0934 183.334,139.1804 131.5,165.1094 C111.355,175.1864 89.7697,189.3204 75.1426,199.4524 " fill="none" id="user-search" style="stroke:#FFFFFF;stroke-width:1.0;"/></g><!--link user to borrowBook--><g id="link_user_borrowBook"><path d="M283.847,109.1784 C259.759,120.8804 225.647,140.2444 202.5,165.1094 C159.016,211.8194 167.992,237.1824 135.5,292.1094 C129.43,302.3704 122.068,313.5534 116.156,322.2644 " fill="none" id="user-borrowBook" style="stroke:#FFFFFF;stroke-width:1.0;"/></g><!--link user to renewBook--><g id="link_user_renewBook"><path d="M341.394,113.9014 C379.671,136.8074 446.468,176.7814 481.886,197.9774 " fill="none" id="user-renewBook" style="stroke:#FFFFFF;stroke-width:1.0;"/></g><!--link user to returnBook--><g id="link_user_returnBook"><path d="M314.236,135.3414 C315.982,174.3044 318.587,232.4224 319.814,259.7994 " fill="none" id="user-returnBook" style="stroke:#FFFFFF;stroke-width:1.0;"/></g><!--link user to pay--><g id="link_user_pay"><path d="M336.585,135.3414 C361.452,175.3304 398.865,235.4944 415.283,261.8954 " fill="none" id="user-pay" style="stroke:#FFFFFF;stroke-width:1.0;"/></g><!--link search to borrowBook--><g id="link_search_borrowBook"><path d="M55.4075,227.7304 C53.5492,243.8314 52.367,271.0924 61.5,292.1094 C65.9412,302.3294 73.7679,311.5924 81.6012,319.0524 " fill="none" id="search-to-borrowBook" style="stroke:#FFFFFF;stroke-width:1.0;stroke-dasharray:7.0,7.0;"/><polygon fill="#FFFFFF" points="85.4323,322.5664,81.5021,313.5357,81.747,319.1872,76.0955,319.4321,85.4323,322.5664" style="stroke:#FFFFFF;stroke-width:1.0;"/><text fill="#FFFFFF" font-family="Verdana" font-size="13" lengthAdjust="spacing" textLength="68" x="62.5" y="280.6763">&#171;Extends&#187;</text></g><!--link renewBook to myBooks--><g id="link_renewBook_myBooks"><path d="M518.375,229.2534 C537.839,252.1464 574.677,295.4744 595.386,319.8324 " fill="none" id="renewBook-to-myBooks" style="stroke:#FFFFFF;stroke-width:1.0;stroke-dasharray:7.0,7.0;"/><polygon fill="#FFFFFF" points="598.811,323.8614,596.0298,314.4134,595.5727,320.0517,589.9344,319.5946,598.811,323.8614" style="stroke:#FFFFFF;stroke-width:1.0;"/><text fill="#FFFFFF" font-family="Verdana" font-size="13" lengthAdjust="spacing" textLength="68" x="571.5" y="280.6763">&#171;Extends&#187;</text></g><!--link login to signUp--><g id="link_login_signUp"><path d="M481.336,538.0864 C521.453,567.8154 622.636,642.7998 667.044,675.709 " fill="none" id="login-to-signUp" style="stroke:#FFFFFF;stroke-width:1.0;stroke-dasharray:7.0,7.0;"/><polygon fill="#FFFFFF" points="671.16,678.7594,666.3109,670.1869,667.1429,675.7823,661.5476,676.6143,671.16,678.7594" style="stroke:#FFFFFF;stroke-width:1.0;"/><text fill="#FFFFFF" font-family="Verdana" font-size="13" lengthAdjust="spacing" textLength="68" x="589.5" y="613.1763">&#171;Extends&#187;</text></g><!--link borrowBook to login--><g id="link_borrowBook_login"><path d="M105.2309,355.3054 C105.6601,378.4594 109.7283,421.9544 132.5,449.1094 C168.434,491.9614 332.83,512.1794 416.004,519.8024 " fill="none" id="borrowBook-to-login" style="stroke:#FFFFFF;stroke-width:1.0;stroke-dasharray:7.0,7.0;"/><polygon fill="#FFFFFF" points="421.363,520.2864,412.7596,515.4924,416.3833,519.8363,412.0395,523.46,421.363,520.2864" style="stroke:#FFFFFF;stroke-width:1.0;"/><text fill="#FFFFFF" font-family="Verdana" font-size="13" lengthAdjust="spacing" textLength="68" x="133.5" y="445.1763">&#171;Includes&#187;</text></g><!--link renewBook to login--><g id="link_renewBook_login"><path d="M503.467,229.4574 C496.626,281.0944 474.457,448.4424 466.985,504.8494 " fill="none" id="renewBook-to-login" style="stroke:#FFFFFF;stroke-width:1.0;stroke-dasharray:7.0,7.0;"/><polygon fill="#FFFFFF" points="466.309,509.9544,471.4574,501.5583,466.9663,504.9978,463.5268,500.5067,466.309,509.9544" style="stroke:#FFFFFF;stroke-width:1.0;"/><text fill="#FFFFFF" font-family="Verdana" font-size="13" lengthAdjust="spacing" textLength="68" x="484.5" y="398.1763">&#171;Includes&#187;</text></g><!--link returnBook to login--><g id="link_returnBook_login"><path d="M317.607,292.2634 C313.701,316.7394 309.074,365.8894 326.5,402.1094 C350.375,451.7334 404.741,489.6514 437.661,509.1054 " fill="none" id="returnBook-to-login" style="stroke:#FFFFFF;stroke-width:1.0;stroke-dasharray:7.0,7.0;"/><polygon fill="#FFFFFF" points="442.356,511.8404,436.5935,503.8533,438.0359,509.3232,432.566,510.7655,442.356,511.8404" style="stroke:#FFFFFF;stroke-width:1.0;"/><text fill="#FFFFFF" font-family="Verdana" font-size="13" lengthAdjust="spacing" textLength="68" x="327.5" y="398.1763">&#171;Includes&#187;</text></g><!--link pay to login--><g id="link_pay_login"><path d="M418.489,290.7514 C410.695,313.8794 397.455,362.1654 406.5,402.1094 C415.405,441.4334 438.644,482.9284 452.856,505.8144 " fill="none" id="pay-to-login" style="stroke:#FFFFFF;stroke-width:1.0;stroke-dasharray:7.0,7.0;"/><polygon fill="#FFFFFF" points="455.571,510.1374,454.1714,500.3885,452.9116,505.9033,447.3968,504.6434,455.571,510.1374" style="stroke:#FFFFFF;stroke-width:1.0;"/><text fill="#FFFFFF" font-family="Verdana" font-size="13" lengthAdjust="spacing" textLength="68" x="407.5" y="398.1763">&#171;Includes&#187;</text></g><!--link librarian to addBook--><g id="link_librarian_addBook"><path d="M781.19,134.4284 C758.93,156.4024 732.226,182.7644 716.348,198.4384 " fill="none" id="librarian-addBook" style="stroke:#FFFFFF;stroke-width:1.0;"/></g><!--link librarian to removeBook--><g id="link_librarian_removeBook"><path d="M857.716,132.2054 C880.772,153.6814 909,179.9744 926.621,196.3874 " fill="none" id="librarian-removeBook" style="stroke:#FFFFFF;stroke-width:1.0;"/></g><!--link addBook to login--><g id="link_addBook_login"><path d="M704.654,228.4224 C707.953,255.2144 711.657,313.9444 688.5,355.1094 C644.007,434.2034 545.471,487.4784 495.239,510.5794 " fill="none" id="addBook-to-login" style="stroke:#FFFFFF;stroke-width:1.0;stroke-dasharray:7.0,7.0;"/><polygon fill="#FFFFFF" points="490.532,512.7204,500.3805,512.6355,495.0834,510.6504,497.0685,505.3533,490.532,512.7204" style="stroke:#FFFFFF;stroke-width:1.0;"/><text fill="#FFFFFF" font-family="Verdana" font-size="13" lengthAdjust="spacing" textLength="68" x="668.5" y="398.1763">&#171;Includes&#187;</text></g><!--link removeBook to login--><g id="link_removeBook_login"><path d="M939.458,230.0844 C929.503,266.1804 900.379,354.5804 843.5,402.1094 C745.182,484.2664 590.449,511.1514 512.611,519.7304 " fill="none" id="removeBook-to-login" style="stroke:#FFFFFF;stroke-width:1.0;stroke-dasharray:7.0,7.0;"/><polygon fill="#FFFFFF" points="507.596,520.2694,516.9728,523.2821,512.5672,519.7337,516.1156,515.3282,507.596,520.2694" style="stroke:#FFFFFF;stroke-width:1.0;"/><text fill="#FFFFFF" font-family="Verdana" font-size="13" lengthAdjust="spacing" textLength="68" x="862.5" y="398.1763">&#171;Includes&#187;</text></g><!--SRC=[VL7DZi8W4Bxp5BEtxa4Vm9WcTUF1H3URDZti4OLKOe46SDs-_S8WbMsYj_b-PfXlU7DdBZbGAJfAx4MeWHegWPwSDeqRUo_TkDMI4oUSH_lTfgxgRsYRBNnKpPQGbI_h5L0BLyiDAM2lEw7WFJ1zA4dHY4v1Eo1bVTqEdkFKdCwHmf8K6ssCli56wmloHyG1agBcYcUI2J0gXn5fYxmSiGv-TpKgRmWuTdpH4Rc1Zdxzc6XNVMA6NXmDDOBwhIl67lsKiRI8r3yy7nmmQYGS01QBb371U8L9Z6aJp48cwX7kmKpR9mgNZxDWkIopER22zNhxwxXYjYp9D0rjzmFDFBYXrxqXxZxJIJOTNR4Xc7Rgr5yPdx_qt9EIl33vR2zKClrHk4Fwc7za_YbtGnZuVAbaV-7w0m00]--></g></svg>