<?xml version="1.0" encoding="us-ascii" standalone="no"?><svg xmlns="http://www.w3.org/2000/svg" xmlns:xlink="http://www.w3.org/1999/xlink" contentStyleType="text/css" height="666px" preserveAspectRatio="none" style="width:1022px;height:666px;background:#0B58A8;" version="1.1" viewBox="0 0 1022 666" width="1022px" zoomAndPan="magnify"><defs/><g><rect fill="#0B58A8" height="666" style="stroke:none;stroke-width:1.0;" width="1022" x="0" y="0"/><!--entity user--><g id="elem_user"><ellipse cx="312.5" cy="27" fill="#0B58A8" rx="16" ry="16" style="stroke:#FFFFFF;stroke-width:1.5;"/><path d="M312.5,47 C316.5,47 319.5,47 323.5,43 C331.5,43 339.5,51 339.5,59 L339.5,63 C339.5,67 335.5,71 331.5,71 L293.5,71 C289.5,71 285.5,67 285.5,63 L285.5,59 C285.5,51 293.5,43 301.5,43 C305.5,47 308.5,47 312.5,47 " fill="#0B58A8" style="stroke:#FFFFFF;stroke-width:1.5;"/><text fill="#FFFFFF" font-family="Verdana" font-size="14" lengthAdjust="spacing" textLength="37" x="294" y="85.4951">USER</text></g><g id="elem_login"><ellipse cx="464.6374" cy="478.1391" fill="#0B58A8" rx="45.1374" ry="14.6391" style="stroke:#FFFFFF;stroke-width:1.0;"/><text fill="#FFFFFF" font-family="Verdana" font-size="14" lengthAdjust="spacing" textLength="39" x="442.1374" y="481.8867">Login</text></g><g id="elem_signUp"><ellipse cx="688.3615" cy="646.1946" fill="#0B58A8" rx="50.3615" ry="14.6946" style="stroke:#FFFFFF;stroke-width:1.0;"/><text fill="#FFFFFF" font-family="Verdana" font-size="14" lengthAdjust="spacing" textLength="54" x="658.3615" y="649.9422">Sign Up</text></g><g id="elem_search"><ellipse cx="57.6299" cy="166.6562" fill="#0B58A8" rx="46.6299" ry="14.6562" style="stroke:#FFFFFF;stroke-width:1.0;"/><text fill="#FFFFFF" font-family="Verdana" font-size="14" lengthAdjust="spacing" textLength="49" x="30.1299" y="170.4038">Search</text></g><g id="elem_borrowBook"><ellipse cx="105.6952" cy="291.839" fill="#0B58A8" rx="69.6952" ry="16.339" style="stroke:#FFFFFF;stroke-width:1.0;"/><text fill="#FFFFFF" font-family="Verdana" font-size="14" lengthAdjust="spacing" textLength="92" x="56.6952" y="295.5866">Borrow Book</text></g><g id="elem_renewBook"><ellipse cx="505.6011" cy="166.6202" fill="#0B58A8" rx="68.6011" ry="16.1202" style="stroke:#FFFFFF;stroke-width:1.0;"/><text fill="#FFFFFF" font-family="Verdana" font-size="14" lengthAdjust="spacing" textLength="89" x="458.1011" y="170.3678">Renew Book</text></g><g id="elem_myBooks"><ellipse cx="610.313" cy="291.7771" fill="#0B58A8" rx="60.813" ry="14.7771" style="stroke:#FFFFFF;stroke-width:1.0;"/><text fill="#FFFFFF" font-family="Verdana" font-size="14" lengthAdjust="spacing" textLength="68" x="573.313" y="295.5247">My Books</text></g><g id="elem_returnBook"><ellipse cx="320.464" cy="229.6928" fill="#0B58A8" rx="68.964" ry="16.1928" style="stroke:#FFFFFF;stroke-width:1.0;"/><text fill="#FFFFFF" font-family="Verdana" font-size="14" lengthAdjust="spacing" textLength="90" x="272.464" y="233.4404">Return Book</text></g><g id="elem_pay"><ellipse cx="423.663" cy="229.5236" fill="#0B58A8" rx="29.163" ry="14.5236" style="stroke:#FFFFFF;stroke-width:1.0;"/><text fill="#FFFFFF" font-family="Verdana" font-size="14" lengthAdjust="spacing" textLength="25" x="411.163" y="232.3703">Pay</text></g><!--entity librarian--><g id="elem_librarian"><ellipse cx="819.5" cy="27" fill="#0B58A8" rx="16" ry="16" style="stroke:#FFFFFF;stroke-width:1.5;"/><path d="M819.5,47 C823.5,47 826.5,47 830.5,43 C838.5,43 846.5,51 846.5,59 L846.5,63 C846.5,67 842.5,71 838.5,71 L800.5,71 C796.5,71 792.5,67 792.5,63 L792.5,59 C792.5,51 800.5,43 808.5,43 C812.5,47 815.5,47 819.5,47 " fill="#0B58A8" style="stroke:#FFFFFF;stroke-width:1.5;"/><text fill="#FFFFFF" font-family="Verdana" font-size="14" lengthAdjust="spacing" textLength="76" x="781.5" y="85.4951">LIBRARIAN</text></g><g id="elem_addBook"><ellipse cx="702.5597" cy="166.282" fill="#0B58A8" rx="61.5597" ry="14.782" style="stroke:#FFFFFF;stroke-width:1.0;"/><text fill="#FFFFFF" font-family="Verdana" font-size="14" lengthAdjust="spacing" textLength="69" x="665.0597" y="170.0295">Add Book</text></g><g id="elem_removeBook"><ellipse cx="943.6868" cy="166.4374" fill="#0B58A8" rx="72.6868" ry="16.9374" style="stroke:#FFFFFF;stroke-width:1.0;"/><text fill="#FFFFFF" font-family="Verdana" font-size="14" lengthAdjust="spacing" textLength="100" x="890.6868" y="170.1849">Remove Book</text></g><!--link user to signUp--><g id="link_user_signUp"><path d="M341.098,50.369 C447.927,52.507 817.5,67.018 817.5,165.5 C817.5,165.5 817.5,165.5 817.5,563 C817.5,605.7254 766.478,627.1432 728.609,637.1554 " fill="none" id="user-signUp" style="stroke:#FFFFFF;stroke-width:1.0;"/></g><!--link user to login--><g id="link_user_login"><path d="M283.592,71.803 C259.294,92.834 228.5,127.069 228.5,165.5 C228.5,165.5 228.5,165.5 228.5,395 C228.5,435.935 356.794,461.084 424.198,471.472 " fill="none" id="user-login" style="stroke:#FFFFFF;stroke-width:1.0;"/></g><!--link user to search--><g id="link_user_search"><path d="M283.837,58.833 C247.496,70.484 183.334,92.571 131.5,118.5 C111.355,128.577 89.7697,142.711 75.1426,152.843 " fill="none" id="user-search" style="stroke:#FFFFFF;stroke-width:1.0;"/></g><!--link user to borrowBook--><g id="link_user_borrowBook"><path d="M283.847,62.569 C259.759,74.271 225.647,93.635 202.5,118.5 C159.016,165.21 167.992,190.573 135.5,245.5 C129.43,255.761 122.068,266.944 116.156,275.655 " fill="none" id="user-borrowBook" style="stroke:#FFFFFF;stroke-width:1.0;"/></g><!--link user to renewBook--><g id="link_user_renewBook"><path d="M341.394,67.292 C379.671,90.198 446.468,130.172 481.886,151.368 " fill="none" id="user-renewBook" style="stroke:#FFFFFF;stroke-width:1.0;"/></g><!--link user to returnBook--><g id="link_user_returnBook"><path d="M314.236,88.732 C315.982,127.695 318.587,185.813 319.814,213.19 " fill="none" id="user-returnBook" style="stroke:#FFFFFF;stroke-width:1.0;"/></g><!--link user to pay--><g id="link_user_pay"><path d="M336.585,88.732 C361.452,128.721 398.865,188.885 415.283,215.286 " fill="none" id="user-pay" style="stroke:#FFFFFF;stroke-width:1.0;"/></g><!--link search to borrowBook--><g id="link_search_borrowBook"><path d="M55.4075,181.121 C53.5492,197.222 52.367,224.483 61.5,245.5 C65.9412,255.72 73.7679,264.983 81.6012,272.443 " fill="none" id="search-to-borrowBook" style="stroke:#FFFFFF;stroke-width:1.0;stroke-dasharray:7.0,7.0;"/><polygon fill="#FFFFFF" points="85.4323,275.957,81.5021,266.9263,81.747,272.5778,76.0955,272.8227,85.4323,275.957" style="stroke:#FFFFFF;stroke-width:1.0;"/><text fill="#FFFFFF" font-family="Verdana" font-size="13" lengthAdjust="spacing" textLength="68" x="62.5" y="234.0669">&#171;Extends&#187;</text></g><!--link renewBook to myBooks--><g id="link_renewBook_myBooks"><path d="M518.375,182.644 C537.839,205.537 574.677,248.865 595.386,273.223 " fill="none" id="renewBook-to-myBooks" style="stroke:#FFFFFF;stroke-width:1.0;stroke-dasharray:7.0,7.0;"/><polygon fill="#FFFFFF" points="598.811,277.252,596.0298,267.804,595.5727,273.4423,589.9344,272.9852,598.811,277.252" style="stroke:#FFFFFF;stroke-width:1.0;"/><text fill="#FFFFFF" font-family="Verdana" font-size="13" lengthAdjust="spacing" textLength="68" x="571.5" y="234.0669">&#171;Extends&#187;</text></g><!--link login to signUp--><g id="link_login_signUp"><path d="M481.336,491.477 C521.453,521.206 622.636,596.1904 667.044,629.0996 " fill="none" id="login-to-signUp" style="stroke:#FFFFFF;stroke-width:1.0;stroke-dasharray:7.0,7.0;"/><polygon fill="#FFFFFF" points="671.16,632.15,666.3109,623.5776,667.1429,629.1729,661.5476,630.0049,671.16,632.15" style="stroke:#FFFFFF;stroke-width:1.0;"/><text fill="#FFFFFF" font-family="Verdana" font-size="13" lengthAdjust="spacing" textLength="68" x="589.5" y="566.5669">&#171;Extends&#187;</text></g><!--link borrowBook to login--><g id="link_borrowBook_login"><path d="M105.2309,308.696 C105.6601,331.85 109.7283,375.345 132.5,402.5 C168.434,445.352 332.83,465.57 416.004,473.193 " fill="none" id="borrowBook-to-login" style="stroke:#FFFFFF;stroke-width:1.0;stroke-dasharray:7.0,7.0;"/><polygon fill="#FFFFFF" points="421.363,473.677,412.7596,468.8831,416.3833,473.2269,412.0395,476.8506,421.363,473.677" style="stroke:#FFFFFF;stroke-width:1.0;"/><text fill="#FFFFFF" font-family="Verdana" font-size="13" lengthAdjust="spacing" textLength="68" x="133.5" y="398.5669">&#171;Includes&#187;</text></g><!--link renewBook to login--><g id="link_renewBook_login"><path d="M503.467,182.848 C496.626,234.485 474.457,401.833 466.985,458.24 " fill="none" id="renewBook-to-login" style="stroke:#FFFFFF;stroke-width:1.0;stroke-dasharray:7.0,7.0;"/><polygon fill="#FFFFFF" points="466.309,463.345,471.4574,454.9489,466.9663,458.3884,463.5268,453.8973,466.309,463.345" style="stroke:#FFFFFF;stroke-width:1.0;"/><text fill="#FFFFFF" font-family="Verdana" font-size="13" lengthAdjust="spacing" textLength="68" x="484.5" y="351.5669">&#171;Includes&#187;</text></g><!--link returnBook to login--><g id="link_returnBook_login"><path d="M317.607,245.654 C313.701,270.13 309.074,319.28 326.5,355.5 C350.375,405.124 404.741,443.042 437.661,462.496 " fill="none" id="returnBook-to-login" style="stroke:#FFFFFF;stroke-width:1.0;stroke-dasharray:7.0,7.0;"/><polygon fill="#FFFFFF" points="442.356,465.231,436.5935,457.2439,438.0359,462.7138,432.566,464.1561,442.356,465.231" style="stroke:#FFFFFF;stroke-width:1.0;"/><text fill="#FFFFFF" font-family="Verdana" font-size="13" lengthAdjust="spacing" textLength="68" x="327.5" y="351.5669">&#171;Includes&#187;</text></g><!--link pay to login--><g id="link_pay_login"><path d="M418.489,244.142 C410.695,267.27 397.455,315.556 406.5,355.5 C415.405,394.824 438.644,436.319 452.856,459.205 " fill="none" id="pay-to-login" style="stroke:#FFFFFF;stroke-width:1.0;stroke-dasharray:7.0,7.0;"/><polygon fill="#FFFFFF" points="455.571,463.528,454.1714,453.7791,452.9116,459.2939,447.3968,458.0341,455.571,463.528" style="stroke:#FFFFFF;stroke-width:1.0;"/><text fill="#FFFFFF" font-family="Verdana" font-size="13" lengthAdjust="spacing" textLength="68" x="407.5" y="351.5669">&#171;Includes&#187;</text></g><!--link librarian to addBook--><g id="link_librarian_addBook"><path d="M781.19,87.819 C758.93,109.793 732.226,136.155 716.348,151.829 " fill="none" id="librarian-addBook" style="stroke:#FFFFFF;stroke-width:1.0;"/></g><!--link librarian to removeBook--><g id="link_librarian_removeBook"><path d="M857.716,85.596 C880.772,107.072 909,133.365 926.621,149.778 " fill="none" id="librarian-removeBook" style="stroke:#FFFFFF;stroke-width:1.0;"/></g><!--link addBook to login--><g id="link_addBook_login"><path d="M704.654,181.813 C707.953,208.605 711.657,267.335 688.5,308.5 C644.007,387.594 545.471,440.869 495.239,463.97 " fill="none" id="addBook-to-login" style="stroke:#FFFFFF;stroke-width:1.0;stroke-dasharray:7.0,7.0;"/><polygon fill="#FFFFFF" points="490.532,466.111,500.3805,466.0261,495.0834,464.041,497.0685,458.7439,490.532,466.111" style="stroke:#FFFFFF;stroke-width:1.0;"/><text fill="#FFFFFF" font-family="Verdana" font-size="13" lengthAdjust="spacing" textLength="68" x="668.5" y="351.5669">&#171;Includes&#187;</text></g><!--link removeBook to login--><g id="link_removeBook_login"><path d="M939.458,183.475 C929.503,219.571 900.379,307.971 843.5,355.5 C745.182,437.657 590.449,464.542 512.611,473.121 " fill="none" id="removeBook-to-login" style="stroke:#FFFFFF;stroke-width:1.0;stroke-dasharray:7.0,7.0;"/><polygon fill="#FFFFFF" points="507.596,473.66,516.9728,476.6727,512.5672,473.1243,516.1156,468.7188,507.596,473.66" style="stroke:#FFFFFF;stroke-width:1.0;"/><text fill="#FFFFFF" font-family="Verdana" font-size="13" lengthAdjust="spacing" textLength="68" x="862.5" y="351.5669">&#171;Includes&#187;</text></g><!--SRC=[VL7DZeCW4Bxp5EpDFRGFO1eJJNemQJSRZGz0XLXI0GEwNTz-OIZAcjJRV3ypV3DyZ7Sc62Q2TmIP1vS3qKHWqevAr-FSM-d9Z18CeRIfprMAYS6JOHeb-A8wBl6dOtfNegJcdSJD09InTJDOZX7TtZq59KeAfRLwuaAf1_0tm0wYf6AIHP9sq2lN6MW3l9YXTlvnqZ9kSDXtV9CPk87CDlwbBAgyAlClsA7dDqqq9pPrJkdQJoWDGOJwOV5WXq53xW3uS0Wx1kYli8X-sm2Z9GErBhSoI_f0GNW_2n-FMJG7f_XqEl-EJ5AJPMYP1hRNWJOUI6XrQ_3PDpgAfeFBDpXJATj-ecpxqdjFs6J7P7VRKT7oH-uEuMF-aV6dl0nkuFjGmRxZ-WC0]--></g></svg>