<?xml version="1.0" encoding="us-ascii" standalone="no"?><svg xmlns="http://www.w3.org/2000/svg" xmlns:xlink="http://www.w3.org/1999/xlink" contentStyleType="text/css" height="713px" preserveAspectRatio="none" style="width:1024px;height:713px;background:#0B58A8;" version="1.1" viewBox="0 0 1024 713" width="1024px" zoomAndPan="magnify"><defs/><g><rect fill="#0B58A8" height="713" style="stroke:none;stroke-width:1.0;" width="1024" x="0" y="0"/><text fill="#FFFFFF" font-family="Verdana" font-size="22" font-weight="bold" lengthAdjust="spacing" textLength="235" x="390.1868" y="35.4209">LIBRARY USE CASE</text><!--entity user--><g id="elem_user"><ellipse cx="309.5" cy="73.6094" fill="#0B58A8" rx="16" ry="16" style="stroke:#FFFFFF;stroke-width:1.5;"/><path d="M309.5,93.6094 C313.5,93.6094 316.5,93.6094 320.5,89.6094 C328.5,89.6094 336.5,97.6094 336.5,105.6094 L336.5,109.6094 C336.5,113.6094 332.5,117.6094 328.5,117.6094 L290.5,117.6094 C286.5,117.6094 282.5,113.6094 282.5,109.6094 L282.5,105.6094 C282.5,97.6094 290.5,89.6094 298.5,89.6094 C302.5,93.6094 305.5,93.6094 309.5,93.6094 " fill="#0B58A8" style="stroke:#FFFFFF;stroke-width:1.5;"/><text fill="#FFFFFF" font-family="Verdana" font-size="14" lengthAdjust="spacing" textLength="37" x="291" y="132.1045">USER</text></g><g id="elem_login"><ellipse cx="464.6374" cy="524.7485" fill="#0B58A8" rx="45.1374" ry="14.6391" style="stroke:#FFFFFF;stroke-width:1.0;"/><text fill="#FFFFFF" font-family="Verdana" font-size="14" lengthAdjust="spacing" textLength="39" x="442.1374" y="528.4961">Login</text></g><g id="elem_signUp"><ellipse cx="686.3615" cy="692.804" fill="#0B58A8" rx="50.3615" ry="14.6946" style="stroke:#FFFFFF;stroke-width:1.0;"/><text fill="#FFFFFF" font-family="Verdana" font-size="14" lengthAdjust="spacing" textLength="54" x="656.3615" y="696.5515">Sign Up</text></g><g id="elem_search"><ellipse cx="57.6299" cy="213.2656" fill="#0B58A8" rx="46.6299" ry="14.6562" style="stroke:#FFFFFF;stroke-width:1.0;"/><text fill="#FFFFFF" font-family="Verdana" font-size="14" lengthAdjust="spacing" textLength="49" x="30.1299" y="217.0132">Search</text></g><g id="elem_borrowBook"><ellipse cx="105.6952" cy="338.4484" fill="#0B58A8" rx="69.6952" ry="16.339" style="stroke:#FFFFFF;stroke-width:1.0;"/><text fill="#FFFFFF" font-family="Verdana" font-size="14" lengthAdjust="spacing" textLength="92" x="56.6952" y="342.196">Borrow Book</text></g><g id="elem_renewBook"><ellipse cx="604.6011" cy="338.7296" fill="#0B58A8" rx="68.6011" ry="16.1202" style="stroke:#FFFFFF;stroke-width:1.0;"/><text fill="#FFFFFF" font-family="Verdana" font-size="14" lengthAdjust="spacing" textLength="89" x="557.1011" y="342.4772">Renew Book</text></g><g id="elem_myBooks"><ellipse cx="494.313" cy="212.8865" fill="#0B58A8" rx="60.813" ry="14.7771" style="stroke:#FFFFFF;stroke-width:1.0;"/><text fill="#FFFFFF" font-family="Verdana" font-size="14" lengthAdjust="spacing" textLength="68" x="457.313" y="216.6341">My Books</text></g><g id="elem_returnBook"><ellipse cx="320.464" cy="276.3022" fill="#0B58A8" rx="68.964" ry="16.1928" style="stroke:#FFFFFF;stroke-width:1.0;"/><text fill="#FFFFFF" font-family="Verdana" font-size="14" lengthAdjust="spacing" textLength="90" x="272.464" y="280.0497">Return Book</text></g><g id="elem_pay"><ellipse cx="423.663" cy="276.133" fill="#0B58A8" rx="29.163" ry="14.5236" style="stroke:#FFFFFF;stroke-width:1.0;"/><text fill="#FFFFFF" font-family="Verdana" font-size="14" lengthAdjust="spacing" textLength="25" x="411.163" y="278.9797">Pay</text></g><!--entity librarian--><g id="elem_librarian"><ellipse cx="821.5" cy="73.6094" fill="#0B58A8" rx="16" ry="16" style="stroke:#FFFFFF;stroke-width:1.5;"/><path d="M821.5,93.6094 C825.5,93.6094 828.5,93.6094 832.5,89.6094 C840.5,89.6094 848.5,97.6094 848.5,105.6094 L848.5,109.6094 C848.5,113.6094 844.5,117.6094 840.5,117.6094 L802.5,117.6094 C798.5,117.6094 794.5,113.6094 794.5,109.6094 L794.5,105.6094 C794.5,97.6094 802.5,89.6094 810.5,89.6094 C814.5,93.6094 817.5,93.6094 821.5,93.6094 " fill="#0B58A8" style="stroke:#FFFFFF;stroke-width:1.5;"/><text fill="#FFFFFF" font-family="Verdana" font-size="14" lengthAdjust="spacing" textLength="76" x="783.5" y="132.1045">LIBRARIAN</text></g><g id="elem_addBook"><ellipse cx="704.5597" cy="212.8913" fill="#0B58A8" rx="61.5597" ry="14.782" style="stroke:#FFFFFF;stroke-width:1.0;"/><text fill="#FFFFFF" font-family="Verdana" font-size="14" lengthAdjust="spacing" textLength="69" x="667.0597" y="216.6389">Add Book</text></g><g id="elem_removeBook"><ellipse cx="945.6868" cy="213.0467" fill="#0B58A8" rx="72.6868" ry="16.9374" style="stroke:#FFFFFF;stroke-width:1.0;"/><text fill="#FFFFFF" font-family="Verdana" font-size="14" lengthAdjust="spacing" textLength="100" x="892.6868" y="216.7943">Remove Book</text></g><!--link user to signUp--><g id="link_user_signUp"><path d="M338.013,96.9134 C445.416,98.8164 819.5,112.5874 819.5,212.1094 C819.5,212.1094 819.5,212.1094 819.5,609.6094 C819.5,653.2825 766.895,674.4559 727.853,684.1563 " fill="none" id="user-signUp" style="stroke:#FFFFFF;stroke-width:1.0;"/></g><!--link user to login--><g id="link_user_login"><path d="M280.714,119.4574 C257.433,140.7004 228.5,174.6374 228.5,212.1094 C228.5,212.1094 228.5,212.1094 228.5,441.6094 C228.5,482.5444 356.794,507.6934 424.198,518.0814 " fill="none" id="user-login" style="stroke:#FFFFFF;stroke-width:1.0;"/></g><!--link user to search--><g id="link_user_search"><path d="M280.699,105.7224 C244.866,117.5024 182.217,139.5634 131.5,165.1094 C111.383,175.2424 89.7935,189.3674 75.1576,199.4824 " fill="none" id="user-search" style="stroke:#FFFFFF;stroke-width:1.0;"/></g><!--link user to borrowBook--><g id="link_user_borrowBook"><path d="M280.705,109.8264 C257.341,121.6794 224.743,140.9154 202.5,165.1094 C159.309,212.0904 167.992,237.1824 135.5,292.1094 C129.43,302.3704 122.068,313.5534 116.156,322.2644 " fill="none" id="user-borrowBook" style="stroke:#FFFFFF;stroke-width:1.0;"/></g><!--link user to myBooks--><g id="link_user_myBooks"><path d="M338.001,114.4034 C375.401,137.7534 440.18,178.1964 473.448,198.9664 " fill="none" id="user-myBooks" style="stroke:#FFFFFF;stroke-width:1.0;"/></g><!--link user to returnBook--><g id="link_user_returnBook"><path d="M311.887,135.3414 C314.288,174.3044 317.869,232.4224 319.556,259.7994 " fill="none" id="user-returnBook" style="stroke:#FFFFFF;stroke-width:1.0;"/></g><!--link user to pay--><g id="link_user_pay"><path d="M334.236,135.3414 C359.775,175.3304 398.199,235.4944 415.061,261.8954 " fill="none" id="user-pay" style="stroke:#FFFFFF;stroke-width:1.0;"/></g><!--link search to borrowBook--><g id="link_search_borrowBook"><path d="M55.4075,227.7304 C53.5492,243.8314 52.367,271.0924 61.5,292.1094 C65.9412,302.3294 73.7679,311.5924 81.6012,319.0524 " fill="none" id="search-to-borrowBook" style="stroke:#FFFFFF;stroke-width:1.0;stroke-dasharray:7.0,7.0;"/><polygon fill="#FFFFFF" points="85.4323,322.5664,81.5021,313.5357,81.747,319.1872,76.0955,319.4321,85.4323,322.5664" style="stroke:#FFFFFF;stroke-width:1.0;"/><text fill="#FFFFFF" font-family="Verdana" font-size="13" lengthAdjust="spacing" textLength="68" x="62.5" y="280.6763">&#171;Extends&#187;</text></g><!--link myBooks to renewBook--><g id="link_myBooks_renewBook"><path d="M507.118,228.2764 C527.045,250.6484 565.805,294.1654 587.943,319.0204 " fill="none" id="myBooks-to-renewBook" style="stroke:#FFFFFF;stroke-width:1.0;stroke-dasharray:7.0,7.0;"/><polygon fill="#FFFFFF" points="591.348,322.8424,588.3495,313.4611,588.0226,319.1085,582.3752,318.7817,591.348,322.8424" style="stroke:#FFFFFF;stroke-width:1.0;"/><text fill="#FFFFFF" font-family="Verdana" font-size="13" lengthAdjust="spacing" textLength="68" x="564.5" y="280.6763">&#171;Extends&#187;</text></g><!--link login to signUp--><g id="link_login_signUp"><path d="M481.186,538.0864 C520.944,567.8154 621.225,642.7998 665.236,675.709 " fill="none" id="login-to-signUp" style="stroke:#FFFFFF;stroke-width:1.0;stroke-dasharray:7.0,7.0;"/><polygon fill="#FFFFFF" points="669.315,678.7594,664.5027,670.1662,665.3107,675.7651,659.7119,676.5731,669.315,678.7594" style="stroke:#FFFFFF;stroke-width:1.0;"/><text fill="#FFFFFF" font-family="Verdana" font-size="13" lengthAdjust="spacing" textLength="68" x="588.5" y="613.1763">&#171;Extends&#187;</text></g><!--link borrowBook to login--><g id="link_borrowBook_login"><path d="M105.2309,355.3054 C105.6601,378.4594 109.7283,421.9544 132.5,449.1094 C168.434,491.9614 332.83,512.1794 416.004,519.8024 " fill="none" id="borrowBook-to-login" style="stroke:#FFFFFF;stroke-width:1.0;stroke-dasharray:7.0,7.0;"/><polygon fill="#FFFFFF" points="421.363,520.2864,412.7596,515.4924,416.3833,519.8363,412.0395,523.46,421.363,520.2864" style="stroke:#FFFFFF;stroke-width:1.0;"/><text fill="#FFFFFF" font-family="Verdana" font-size="13" lengthAdjust="spacing" textLength="68" x="133.5" y="445.1763">&#171;Includes&#187;</text></g><!--link myBooks to login--><g id="link_myBooks_login"><path d="M493.719,228.2844 C491.931,259.6564 487.173,337.3204 480.5,402.1094 C476.751,438.5094 470.817,480.8414 467.327,504.7044 " fill="none" id="myBooks-to-login" style="stroke:#FFFFFF;stroke-width:1.0;stroke-dasharray:7.0,7.0;"/><polygon fill="#FFFFFF" points="466.579,509.7914,471.8476,501.4702,467.3075,504.8447,463.933,500.3046,466.579,509.7914" style="stroke:#FFFFFF;stroke-width:1.0;"/><text fill="#FFFFFF" font-family="Verdana" font-size="13" lengthAdjust="spacing" textLength="68" x="483.5" y="398.1763">&#171;Includes&#187;</text></g><!--link returnBook to login--><g id="link_returnBook_login"><path d="M317.607,292.2634 C313.701,316.7394 309.074,365.8894 326.5,402.1094 C350.375,451.7334 404.741,489.6514 437.661,509.1054 " fill="none" id="returnBook-to-login" style="stroke:#FFFFFF;stroke-width:1.0;stroke-dasharray:7.0,7.0;"/><polygon fill="#FFFFFF" points="442.356,511.8404,436.5935,503.8533,438.0359,509.3232,432.566,510.7655,442.356,511.8404" style="stroke:#FFFFFF;stroke-width:1.0;"/><text fill="#FFFFFF" font-family="Verdana" font-size="13" lengthAdjust="spacing" textLength="68" x="327.5" y="398.1763">&#171;Includes&#187;</text></g><!--link pay to login--><g id="link_pay_login"><path d="M418.489,290.7514 C410.695,313.8794 397.455,362.1654 406.5,402.1094 C415.405,441.4334 438.644,482.9284 452.856,505.8144 " fill="none" id="pay-to-login" style="stroke:#FFFFFF;stroke-width:1.0;stroke-dasharray:7.0,7.0;"/><polygon fill="#FFFFFF" points="455.571,510.1374,454.1714,500.3885,452.9116,505.9033,447.3968,504.6434,455.571,510.1374" style="stroke:#FFFFFF;stroke-width:1.0;"/><text fill="#FFFFFF" font-family="Verdana" font-size="13" lengthAdjust="spacing" textLength="68" x="407.5" y="398.1763">&#171;Includes&#187;</text></g><!--link librarian to addBook--><g id="link_librarian_addBook"><path d="M783.19,134.4284 C760.93,156.4024 734.226,182.7644 718.348,198.4384 " fill="none" id="librarian-addBook" style="stroke:#FFFFFF;stroke-width:1.0;"/></g><!--link librarian to removeBook--><g id="link_librarian_removeBook"><path d="M859.716,132.2054 C882.772,153.6814 911,179.9744 928.621,196.3874 " fill="none" id="librarian-removeBook" style="stroke:#FFFFFF;stroke-width:1.0;"/></g><!--link addBook to login--><g id="link_addBook_login"><path d="M706.671,228.4314 C709.997,255.2394 713.744,313.9944 690.5,355.1094 C645.583,434.5594 546.18,487.6714 495.507,510.6584 " fill="none" id="addBook-to-login" style="stroke:#FFFFFF;stroke-width:1.0;stroke-dasharray:7.0,7.0;"/><polygon fill="#FFFFFF" points="490.759,512.7884,500.6078,512.7527,495.3207,510.7411,497.3322,505.454,490.759,512.7884" style="stroke:#FFFFFF;stroke-width:1.0;"/><text fill="#FFFFFF" font-family="Verdana" font-size="13" lengthAdjust="spacing" textLength="68" x="671.5" y="398.1763">&#171;Includes&#187;</text></g><!--link removeBook to login--><g id="link_removeBook_login"><path d="M941.463,230.0914 C931.519,266.1994 902.415,354.6234 845.5,402.1094 C746.648,484.5844 591.106,511.3264 512.861,519.8034 " fill="none" id="removeBook-to-login" style="stroke:#FFFFFF;stroke-width:1.0;stroke-dasharray:7.0,7.0;"/><polygon fill="#FFFFFF" points="507.82,520.3354,517.1906,523.367,512.7923,519.8097,516.3496,515.4114,507.82,520.3354" style="stroke:#FFFFFF;stroke-width:1.0;"/><text fill="#FFFFFF" font-family="Verdana" font-size="13" lengthAdjust="spacing" textLength="68" x="864.5" y="398.1763">&#171;Includes&#187;</text></g><!--SRC=[VL51Ri8m4BplAxQtz00FY52afEA0HAig4OSUJMA1HM97jbEQtzTUOp18SDkPdLtFhD_iaGySsI0E3Cn9o95fDY1hhTADdNlNEdEZ1WvMM8Uscwekwn_SDMlyA9irGExAEaTcS39SGuPRTH0ItptJ-nAoHXmaxaQYZAjte-Cuq-qnK5H2LYcjrHahfKx4xmbx25dD9KzQsiFG-Po9DiGFCzLURoSjqm6FmyGtcuaRsUpiXqIRyeioz6AlcHRCkIwxxZRFkYuQ6TGlJnTxJ3tm1y358cQCC5pXsWnf8qn2HYg6Y3Zn7Yco7ZRXSbaaMp37rMhzPxdiJ570PHU9haTxq90_ft2IuFoX3ybsKeK1Bzh8jfywVl_ICyKjnmkHI_QY2zV_yLU8dt97fXzo4VY5pqr5-GlLFm00]--></g></svg>